<?xml version="1.0" standalone="no"?>
<!DOCTYPE svg PUBLIC "-//W3C//DTD SVG 20010904//EN"
 "http://www.w3.org/TR/2001/REC-SVG-20010904/DTD/svg10.dtd">
<svg version="1.0" xmlns="http://www.w3.org/2000/svg"
 width="800.000000pt" height="800.000000pt" viewBox="0 0 800.000000 800.000000"
 preserveAspectRatio="xMidYMid meet">
<metadata>
Created by potrace 1.11, written by Peter Selinger 2001-2013
</metadata>
<g transform="translate(0.000000,800.000000) scale(0.100000,-0.100000)"
fill="#000000" stroke="none">
<path d="M3831 6008 c-46 -5 -129 -18 -185 -29 -56 -11 -111 -23 -123 -25
-114 -22 -478 -146 -670 -229 -138 -60 -369 -175 -447 -223 -34 -20 -73 -44
-88 -52 -121 -66 -303 -223 -419 -360 -77 -91 -206 -276 -288 -415 -318 -533
-455 -1051 -370 -1390 86 -341 413 -669 902 -904 110 -53 299 -128 387 -155
30 -9 69 -21 85 -26 53 -16 198 -48 255 -55 30 -4 66 -9 80 -11 43 -6 242 -16
330 -16 94 -1 392 11 437 17 16 2 71 6 124 9 52 4 104 8 114 10 52 10 265 21
395 20 128 -1 160 -4 275 -33 72 -17 159 -38 195 -47 84 -19 88 -20 135 -32
57 -15 193 -42 240 -48 22 -3 45 -7 52 -9 52 -17 296 -25 385 -13 350 48 826
351 1019 648 87 136 137 297 156 514 14 153 7 473 -13 596 -71 440 -153 642
-351 864 -16 17 -68 78 -118 136 -49 58 -92 107 -95 110 -3 3 -18 21 -34 40
-296 360 -608 610 -1021 818 -289 145 -582 238 -870 276 -22 3 -60 8 -85 11
-76 10 -301 12 -389 3z"/>
<path d="M2441 1920 c-30 -11 -55 -21 -56 -22 -1 -2 -11 -17 -23 -35 -55 -79
-30 -193 51 -232 23 -11 83 -30 134 -41 51 -12 104 -30 117 -41 50 -39 43
-128 -13 -166 -19 -14 -45 -18 -103 -18 -68 1 -80 3 -104 25 -15 14 -32 39
-40 56 -21 49 -39 60 -69 40 -24 -16 -24 -17 -9 -58 31 -88 98 -130 216 -133
160 -5 251 79 232 213 -12 83 -59 117 -214 154 -126 30 -149 48 -150 116 0 83
147 127 225 67 19 -14 35 -32 35 -40 0 -17 27 -45 44 -45 7 0 20 6 30 13 18
13 18 15 -2 59 -41 93 -176 132 -301 88z"/>
<path d="M3004 1744 c-15 -8 -34 -24 -41 -34 -19 -27 -31 -25 -26 5 4 20 0 25
-22 31 -15 4 -31 2 -37 -4 -13 -13 -16 -411 -4 -430 11 -17 53 -15 60 4 3 9 6
74 6 145 0 142 11 186 53 214 16 10 40 15 64 13 58 -5 67 -32 68 -213 0 -82 4
-156 8 -162 5 -7 17 -13 27 -13 10 0 22 6 27 13 4 6 9 68 9 137 1 69 2 135 3
147 1 12 16 38 35 57 28 30 40 36 74 36 67 0 75 -21 76 -208 1 -86 5 -163 9
-169 12 -19 45 -16 56 5 5 9 8 91 7 182 -3 215 -19 249 -120 255 -54 3 -95
-12 -125 -47 l-24 -29 -19 30 c-11 16 -27 33 -37 36 -42 13 -100 13 -127 -1z"/>
<path d="M3668 1748 c-42 -11 -98 -67 -98 -98 0 -13 9 -22 26 -26 21 -5 31 0
58 30 19 20 38 37 42 37 93 15 133 -5 137 -65 l2 -39 -55 -3 c-78 -5 -100 -9
-140 -26 -109 -46 -127 -184 -33 -245 41 -27 131 -22 187 11 l44 26 6 -25 c5
-18 13 -25 30 -25 23 0 51 22 40 32 -3 3 -6 82 -8 175 -3 184 -9 207 -64 233
-34 16 -126 20 -174 8z m168 -268 c-2 -32 -10 -58 -22 -72 -23 -25 -90 -57
-113 -53 -9 2 -22 4 -28 4 -23 2 -53 41 -53 69 0 60 56 93 168 100 l50 3 -2
-51z"/>
<path d="M4193 1749 c-17 -5 -43 -23 -57 -39 l-25 -30 -3 32 c-2 26 -8 34 -27
36 -13 2 -28 -1 -33 -6 -12 -12 -15 -385 -4 -420 9 -26 51 -31 60 -6 3 9 6 69
6 135 0 129 10 168 52 207 19 17 39 24 79 25 53 2 54 3 57 35 2 21 -1 32 -10
33 -7 0 -24 2 -38 4 -14 2 -39 -1 -57 -6z"/>
<path d="M4485 1745 c-160 -55 -174 -356 -19 -430 87 -41 196 -20 248 47 30
40 33 63 10 72 -29 11 -43 6 -60 -24 -32 -53 -118 -73 -172 -39 -44 27 -83
138 -49 140 6 0 74 0 150 1 127 0 138 2 148 20 20 37 -15 142 -59 180 -53 44
-128 56 -197 33z m142 -67 c20 -16 54 -89 47 -100 -3 -4 -59 -8 -125 -8 l-119
0 6 28 c10 38 51 90 77 96 35 7 96 -1 114 -16z"/>
<path d="M4934 1741 c-72 -32 -114 -108 -116 -207 -2 -104 38 -186 108 -219
73 -35 164 -27 215 17 61 54 65 118 8 118 -5 0 -19 -16 -31 -35 -25 -43 -62
-64 -107 -60 -69 6 -112 61 -119 156 -7 98 54 191 121 184 12 -1 29 -3 38 -4
19 -1 49 -28 65 -56 13 -23 42 -30 64 -15 13 8 12 15 -8 53 -12 24 -36 51 -53
61 -44 26 -135 29 -185 7z"/>
<path d="M5410 1753 c-98 -29 -151 -106 -152 -219 -2 -145 71 -235 197 -240
126 -5 207 83 208 227 1 111 -52 204 -128 224 -36 10 -104 14 -125 8z m123
-78 c45 -29 70 -129 53 -212 -20 -94 -123 -139 -195 -86 -42 31 -56 70 -56
153 0 63 4 80 24 109 41 57 118 73 174 36z"/>
</g>
</svg>
