<?xml version="1.0" standalone="no"?>
<!DOCTYPE svg PUBLIC "-//W3C//DTD SVG 20010904//EN"
 "http://www.w3.org/TR/2001/REC-SVG-20010904/DTD/svg10.dtd">
<svg version="1.0" xmlns="http://www.w3.org/2000/svg"
 width="512.000000pt" height="512.000000pt" viewBox="0 0 512.000000 512.000000"
 preserveAspectRatio="xMidYMid meet">
<metadata>
Created by potrace 1.11, written by Peter Selinger 2001-2013
</metadata>
<g transform="translate(0.000000,512.000000) scale(0.100000,-0.100000)"
fill="#000000" stroke="none">
<path d="M3093 5102 c-17 -9 -42 -30 -55 -47 -22 -28 -23 -39 -26 -205 -2 -96
-1 -194 3 -216 19 -132 202 -166 270 -50 24 41 25 48 25 230 0 195 -6 225 -49
267 -39 37 -121 47 -168 21z"/>
<path d="M2185 4712 c-112 -22 -164 -140 -101 -230 35 -51 251 -261 279 -271
12 -5 42 -7 67 -5 105 9 166 115 120 209 -16 33 -177 201 -257 268 -24 21 -78
35 -108 29z"/>
<path d="M4105 4713 c-11 -2 -31 -6 -43 -9 -33 -7 -267 -237 -291 -286 -57
-115 43 -237 172 -211 32 7 263 223 298 280 28 46 27 114 -2 157 -34 50 -87
77 -134 69z"/>
<path d="M2788 4188 c-22 -13 -45 -38 -58 -62 -16 -32 -75 -249 -96 -350 -11
-54 -54 -175 -99 -277 -153 -346 -395 -626 -638 -740 -34 -16 -76 -31 -93 -35
-28 -5 -33 -3 -42 23 -36 92 -146 188 -260 226 l-77 26 -498 0 c-479 1 -500 0
-538 -19 -25 -13 -46 -34 -59 -60 -20 -39 -20 -56 -20 -1419 0 -1072 3 -1386
12 -1408 17 -38 66 -80 102 -87 17 -4 247 -6 511 -6 512 1 532 2 631 51 62 31
138 100 170 155 14 24 31 44 38 44 6 0 119 -36 251 -81 132 -44 247 -82 255
-84 295 -83 293 -83 1120 -83 786 -1 780 -1 884 60 186 110 265 324 200 540
-3 12 5 19 33 28 97 32 195 122 244 225 77 163 59 322 -53 476 -9 14 -6 25 20
64 109 165 105 368 -12 528 l-20 27 21 28 c58 79 83 151 88 254 10 201 -127
394 -315 447 -71 19 -81 20 -554 20 l-448 1 6 23 c37 130 66 259 82 377 3 25
8 53 9 62 20 101 28 509 12 576 -51 217 -218 391 -433 450 -53 15 -104 20
-205 20 -119 1 -138 -1 -171 -20z m345 -306 c57 -25 123 -91 151 -151 19 -41
21 -63 21 -216 0 -148 -10 -308 -20 -324 -1 -4 -6 -33 -10 -65 -11 -99 -58
-296 -91 -382 l-17 -44 -169 0 c-198 0 -224 -8 -263 -75 -40 -68 -30 -134 29
-187 17 -14 43 -29 59 -32 15 -3 375 -6 799 -6 732 0 772 -1 806 -19 44 -22
82 -84 82 -132 0 -32 -26 -88 -53 -113 -32 -30 -72 -36 -242 -36 -209 0 -242
-9 -280 -75 -48 -81 -22 -166 62 -209 26 -13 65 -16 207 -16 210 0 243 -9 281
-75 28 -47 31 -81 11 -128 -20 -47 -50 -77 -87 -87 -19 -6 -109 -10 -202 -10
-127 0 -176 -4 -204 -15 -87 -36 -117 -125 -71 -207 39 -69 70 -78 273 -78
217 0 248 -10 289 -87 22 -43 20 -78 -5 -130 -35 -73 -63 -81 -274 -83 -159
-1 -185 -3 -222 -21 -78 -38 -104 -119 -62 -200 21 -43 79 -78 129 -79 88 -2
159 -86 146 -172 -8 -55 -51 -103 -106 -119 -23 -7 -270 -9 -755 -6 -848 4
-745 -8 -1220 150 l-310 104 0 929 0 929 45 11 c268 66 548 292 767 619 146
216 237 425 308 700 20 77 38 146 41 154 6 19 98 9 157 -17z m-1710 -1199 c39
-20 50 -31 71 -70 14 -29 16 -133 16 -1113 0 -980 -2 -1084 -16 -1113 -45 -86
-49 -87 -499 -87 l-385 0 0 1200 0 1200 391 0 c337 -1 396 -3 422 -17z"/>
<path d="M2218 2224 c-108 -32 -162 -169 -100 -254 25 -34 70 -54 180 -79 140
-32 172 -54 172 -119 0 -61 -72 -103 -171 -98 -87 4 -124 35 -152 127 -7 23
-71 18 -75 -5 -6 -29 26 -100 58 -131 86 -82 297 -79 377 7 63 67 54 188 -17
240 -23 17 -95 41 -160 53 -56 10 -123 35 -141 51 -43 39 -10 125 56 143 37
10 119 5 143 -8 37 -22 44 -29 57 -67 12 -35 16 -38 49 -39 34 -1 36 1 36 29
0 115 -164 194 -312 150z"/>
<path d="M2790 2057 c-14 -7 -27 -14 -30 -17 -3 -3 -15 -13 -26 -23 -21 -18
-21 -17 -18 13 3 29 2 30 -34 30 l-37 0 0 -220 0 -220 36 0 37 0 0 133 c1 138
4 162 21 196 28 52 108 69 142 29 17 -19 19 -39 19 -190 l0 -168 38 0 38 0 -1
128 c-1 154 8 200 40 227 26 21 73 30 106 20 28 -9 38 -61 38 -195 -1 -197 -5
-180 39 -180 l38 0 -1 178 c-2 189 -9 221 -57 251 -53 33 -146 21 -188 -24
-23 -24 -23 -24 -37 -5 -29 42 -110 60 -163 37z"/>
<path d="M3465 2063 c-56 -14 -88 -38 -106 -77 -20 -46 -14 -59 27 -61 21 -1
29 6 36 27 13 36 52 56 103 53 53 -3 83 -22 91 -58 10 -47 -9 -59 -111 -71
-127 -14 -185 -62 -180 -148 3 -51 28 -86 77 -108 56 -25 142 -11 186 31 23
21 42 18 42 -5 0 -17 51 -39 82 -34 34 4 39 55 6 60 -23 3 -23 5 -28 164 -5
173 -8 182 -62 210 -30 16 -129 26 -163 17z m150 -279 c-4 -52 -25 -80 -72
-100 -50 -22 -90 -17 -119 12 -28 27 -27 64 1 93 13 13 172 51 187 44 3 -2 5
-24 3 -49z"/>
<path d="M2019 1212 l-35 -3 0 -299 0 -300 41 0 40 0 0 128 1 127 115 2 c170
2 183 -8 192 -162 3 -49 6 -91 6 -92 1 -2 26 -3 57 -3 l55 0 -19 28 c-14 20
-20 47 -21 106 -3 84 -18 127 -51 148 -19 12 -19 13 8 38 82 76 67 208 -29
258 -39 20 -61 23 -184 25 -77 1 -156 1 -176 -1z m310 -85 c63 -30 65 -134 3
-170 -26 -15 -55 -20 -147 -21 -75 -2 -115 1 -116 8 -1 6 -2 52 -3 101 -1 79
1 91 17 95 35 10 219 0 246 -13z"/>
<path d="M2677 1042 c-72 -30 -115 -98 -124 -196 -14 -148 79 -258 209 -250
64 5 119 34 149 81 44 66 44 73 -1 73 -29 0 -40 -5 -44 -18 -18 -55 -105 -87
-167 -62 -32 14 -68 74 -69 116 0 20 5 20 148 19 81 0 153 1 160 3 16 6 15 57
-3 119 -32 107 -152 160 -258 115z m140 -64 c24 -12 53 -64 53 -95 0 -18 -9
-19 -117 -18 -78 0 -118 5 -120 12 -2 6 3 27 13 45 35 68 101 90 171 56z"/>
<path d="M3135 1044 c-79 -41 -117 -111 -118 -220 -1 -134 64 -215 177 -222
101 -6 168 43 191 139 6 25 4 26 -27 24 -18 -2 -36 -3 -40 -4 -5 0 -8 -9 -8
-20 0 -21 -43 -67 -72 -77 -29 -9 -83 4 -100 24 -44 50 -57 159 -27 230 40 93
158 104 195 17 12 -31 19 -35 49 -35 42 0 45 14 14 76 -15 31 -32 48 -63 63
-51 25 -129 27 -171 5z"/>
<path d="M3550 1041 c-43 -23 -62 -44 -89 -97 -44 -85 -28 -230 34 -294 31
-33 95 -57 140 -54 17 1 39 2 50 3 33 2 100 50 118 85 30 56 38 88 38 150 1
139 -65 215 -190 223 -51 3 -74 -1 -101 -16z m159 -62 c76 -48 70 -263 -9
-304 -42 -22 -102 -19 -134 6 -36 28 -48 61 -52 134 -4 84 29 155 81 175 28
11 88 4 114 -11z"/>
<path d="M995 883 c-84 -45 -108 -128 -60 -209 50 -85 171 -96 236 -21 18 20
31 49 35 76 18 115 -110 208 -211 154z"/>
</g>
</svg>
